<svg width="20" height="17" viewBox="0 0 20 17" fill="none" xmlns="http://www.w3.org/2000/svg">
<path d="M19.2805 12.7317L16.144 15.9282C16.0758 15.9976 15.9933 16.053 15.9016 16.0908C15.8099 16.1287 15.7111 16.1481 15.6111 16.1481H0.742485C0.671539 16.1481 0.602138 16.1284 0.54281 16.0915C0.483483 16.0545 0.436813 16.0019 0.408534 15.9401C0.380255 15.8782 0.3716 15.8098 0.383631 15.7434C0.395663 15.677 0.427857 15.6154 0.476258 15.566L3.61515 12.3695C3.68315 12.3003 3.76538 12.245 3.85676 12.2072C3.94814 12.1694 4.04671 12.1498 4.14639 12.1495H19.0143C19.0852 12.1495 19.1546 12.1692 19.2139 12.2063C19.2733 12.2432 19.3199 12.2958 19.3482 12.3577C19.3765 12.4195 19.3851 12.4878 19.3731 12.5543C19.361 12.6207 19.3288 12.6824 19.2805 12.7317ZM16.144 6.2947C16.0758 6.22526 15.9933 6.1699 15.9016 6.13206C15.8099 6.09423 15.7111 6.07473 15.6111 6.07478H0.742485C0.671539 6.07478 0.602138 6.09448 0.54281 6.13145C0.483483 6.16842 0.436813 6.22105 0.408534 6.28289C0.380255 6.34471 0.3716 6.41305 0.383631 6.47949C0.395663 6.54594 0.427857 6.60759 0.476258 6.65688L3.61515 9.85345C3.68315 9.9227 3.76538 9.97795 3.85676 10.0158C3.94814 10.0536 4.04671 10.0732 4.14639 10.0734H19.0143C19.0852 10.0734 19.1546 10.0537 19.2139 10.0167C19.2733 9.97973 19.3199 9.9271 19.3482 9.86526C19.3765 9.80344 19.3851 9.7351 19.3731 9.66866C19.361 9.60221 19.3288 9.54056 19.2805 9.49127L16.144 6.2947ZM0.742485 3.99859H15.6111C15.7111 3.99864 15.8099 3.97913 15.9016 3.9413C15.9933 3.90347 16.0758 3.8481 16.144 3.77867L19.2805 0.582103C19.3288 0.532809 19.361 0.471155 19.3731 0.404713C19.3851 0.338271 19.3765 0.269937 19.3482 0.208106C19.3199 0.146275 19.2733 0.0936402 19.2139 0.0566695C19.1546 0.0196988 19.0852 2.27679e-06 19.0143 0H4.14639C4.04671 0.000161187 3.94814 0.0197629 3.85676 0.0575917C3.76538 0.0954204 3.68315 0.150671 3.61515 0.219923L0.477067 3.41649C0.428713 3.46573 0.396533 3.52732 0.384474 3.59369C0.372416 3.66006 0.381002 3.72833 0.409181 3.79013C0.43736 3.85193 0.483907 3.90458 0.543112 3.9416C0.602317 3.97864 0.671608 3.99844 0.742485 3.99859Z" fill="url(#paint0_linear_6_34)"/>
<defs>
<linearGradient id="paint0_linear_6_34" x1="1.98218" y1="16.533" x2="16.6907" y2="-0.915166" gradientUnits="userSpaceOnUse">
<stop offset="0.08" stop-color="#9945FF"/>
<stop offset="0.3" stop-color="#8752F3"/>
<stop offset="0.5" stop-color="#5497D5"/>
<stop offset="0.6" stop-color="#43B4CA"/>
<stop offset="0.72" stop-color="#28E0B9"/>
<stop offset="0.97" stop-color="#19FB9B"/>
</linearGradient>
</defs>
</svg>
